# xmcd
#
# Track frame offsets:
#  150
#  24302
#  49957
#  67852
#  82297
#  101445
#  117740
#  131737
#  150722
#  165232
#  192122
#  211285
#  231075
#  246559
#  269727
#  283542
#  300530
#
# Disc length: 4215 seconds
#
# Revision: 0
# Processed by: cddbd v1.5.1PL2 Copyright (c) Steve Scherf et al.
# Submitted via: Collectorz.com_Music_Collector 6.10
#
DISCID=f4107511
DTITLE=Various Artist - Blue Highways - The Ultimate American Music Fest 2004
DYEAR=2004
DGENRE=Alternative Country - General Country
TTITLE0=Crowell, Rodney - Fate's Right Hand
TTITLE1=Drive-by Truckers - Marry Me
TTITLE2=Reckless Kelly - Vancouver
TTITLE3=Bare Jr., Bobby - Valentine
TTITLE4=Atkins, Ben - Mabelle
TTITLE5=McQueen, Elizabeth - I Don't Wanna Stop
TTITLE6=Eaglesmith, Fred - I Shot Your Dog
TTITLE7=Rice, Rice, Hillman and Pedersen - Hard Times
TTITLE8=Cary, Caitlin - Please Break My Heart
TTITLE9=Moorer, Allison - All Aboard
TTITLE10=Knight, Chris - The Jealous Kind
TTITLE11=Cleary, Neil - When All Of Us Get Famous
TTITLE12=Olson, Mark and The Creekdippers - Big Old Sign
TTITLE13=Lee, Phil - Babylon
TTITLE14=Jarvis, Duane - Coulda Shoulda Woulda
TTITLE15=White, Joy Lynn - On Her Own
TTITLE16=Hinojosa, Tish - Donde Voy (Where I Go)
EXTD=
EXTT0=
EXTT1=
EXTT2=
EXTT3=
EXTT4=
EXTT5=
EXTT6=
EXTT7=
EXTT8=
EXTT9=
EXTT10=
EXTT11=
EXTT12=
EXTT13=
EXTT14=
EXTT15=
EXTT16=
PLAYORDER=
